<svg width="26" height="33" viewBox="0 0 26 33" fill="none" xmlns="http://www.w3.org/2000/svg">
<path d="M6.97852 12.1561C7.0822 12.1561 7.18546 12.1772 7.28125 12.2176C7.37682 12.258 7.46392 12.3169 7.53711 12.3914C7.61039 12.4662 7.66834 12.5555 7.70801 12.6532C7.74768 12.7509 7.76857 12.856 7.76855 12.9618V31.4823C7.76855 31.6958 7.68512 31.9006 7.53711 32.0516C7.38905 32.2026 7.1879 32.2879 6.97852 32.2879C6.76929 32.2878 6.56885 32.2025 6.4209 32.0516C6.27285 31.9006 6.18945 31.6958 6.18945 31.4823V12.9618C6.18944 12.856 6.21033 12.7509 6.25 12.6532C6.28967 12.5555 6.34763 12.4662 6.4209 12.3914C6.4941 12.3169 6.58117 12.258 6.67676 12.2176C6.77242 12.1772 6.87498 12.1561 6.97852 12.1561ZM3.88379 15.7879C3.98747 15.7879 4.09073 15.8082 4.18652 15.8485C4.28224 15.8887 4.36911 15.9479 4.44238 16.0223C4.51559 16.0966 4.57362 16.185 4.61328 16.2821C4.65289 16.3792 4.67379 16.4836 4.67383 16.5887V27.8543C4.67383 28.0669 4.59044 28.2714 4.44238 28.4217C4.29435 28.5719 4.09307 28.6561 3.88379 28.6561C3.6747 28.656 3.4741 28.5717 3.32617 28.4217C3.17812 28.2714 3.09473 28.0669 3.09473 27.8543V16.5887C3.09477 16.4836 3.11566 16.3792 3.15527 16.2821C3.19494 16.185 3.25298 16.0966 3.32617 16.0223C3.39945 15.948 3.48631 15.8887 3.58203 15.8485C3.67768 15.8083 3.78026 15.788 3.88379 15.7879ZM10.0732 15.7879C10.1769 15.7879 10.2802 15.8082 10.376 15.8485C10.4717 15.8887 10.5586 15.9479 10.6318 16.0223C10.705 16.0966 10.7631 16.185 10.8027 16.2821C10.8423 16.3792 10.8632 16.4836 10.8633 16.5887V27.8543C10.8633 28.0669 10.7799 28.2714 10.6318 28.4217C10.4838 28.5719 10.2825 28.6561 10.0732 28.6561C9.86415 28.656 9.66355 28.5717 9.51563 28.4217C9.36757 28.2714 9.28418 28.0669 9.28418 27.8543V16.5887C9.28422 16.4836 9.30511 16.3792 9.34473 16.2821C9.38439 16.185 9.44243 16.0966 9.51563 16.0223C9.58891 15.948 9.67576 15.8887 9.77148 15.8485C9.86714 15.8083 9.96972 15.788 10.0732 15.7879ZM0.789063 18.867C0.892742 18.867 0.996006 18.8874 1.0918 18.9276C1.18739 18.9677 1.27445 19.0263 1.34766 19.1004C1.42089 19.1746 1.47889 19.2633 1.51855 19.3602C1.55822 19.4573 1.57912 19.5618 1.5791 19.6668V24.7772C1.5791 24.8822 1.55823 24.9868 1.51855 25.0838C1.4789 25.1806 1.42079 25.2685 1.34766 25.3426C1.27437 25.4169 1.18754 25.4763 1.0918 25.5164C0.996014 25.5566 0.892738 25.577 0.789063 25.577C0.685535 25.5769 0.582955 25.5566 0.487305 25.5164C0.391521 25.4762 0.304755 25.4169 0.231445 25.3426C0.158287 25.2685 0.100213 25.1807 0.0605469 25.0838C0.0208721 24.9868 5.4391e-09 24.8822 9.80868e-09 24.7772V19.6668C-1.65273e-05 19.5618 0.020878 19.4573 0.0605469 19.3602C0.100212 19.2633 0.158222 19.1746 0.231445 19.1004C0.30467 19.0263 0.39169 18.9677 0.487305 18.9276C0.582969 18.8874 0.685522 18.8671 0.789063 18.867Z" fill="#FF2020"/>
<path d="M6.97852 12.1561C7.0822 12.1561 7.18546 12.1772 7.28125 12.2176C7.37682 12.258 7.46392 12.3169 7.53711 12.3914C7.61039 12.4662 7.66834 12.5555 7.70801 12.6532C7.74768 12.7509 7.76857 12.856 7.76855 12.9618V31.4823C7.76855 31.6958 7.68512 31.9006 7.53711 32.0516C7.38905 32.2026 7.1879 32.2879 6.97852 32.2879C6.76929 32.2878 6.56885 32.2025 6.4209 32.0516C6.27285 31.9006 6.18945 31.6958 6.18945 31.4823V12.9618C6.18944 12.856 6.21033 12.7509 6.25 12.6532C6.28967 12.5555 6.34763 12.4662 6.4209 12.3914C6.4941 12.3169 6.58117 12.258 6.67676 12.2176C6.77242 12.1772 6.87498 12.1561 6.97852 12.1561ZM3.88379 15.7879C3.98747 15.7879 4.09073 15.8082 4.18652 15.8485C4.28224 15.8887 4.36911 15.9479 4.44238 16.0223C4.51559 16.0966 4.57362 16.185 4.61328 16.2821C4.65289 16.3792 4.67379 16.4836 4.67383 16.5887V27.8543C4.67383 28.0669 4.59044 28.2714 4.44238 28.4217C4.29435 28.5719 4.09307 28.6561 3.88379 28.6561C3.6747 28.656 3.4741 28.5717 3.32617 28.4217C3.17812 28.2714 3.09473 28.0669 3.09473 27.8543V16.5887C3.09477 16.4836 3.11566 16.3792 3.15527 16.2821C3.19494 16.185 3.25298 16.0966 3.32617 16.0223C3.39945 15.948 3.48631 15.8887 3.58203 15.8485C3.67768 15.8083 3.78026 15.788 3.88379 15.7879ZM10.0732 15.7879C10.1769 15.7879 10.2802 15.8082 10.376 15.8485C10.4717 15.8887 10.5586 15.9479 10.6318 16.0223C10.705 16.0966 10.7631 16.185 10.8027 16.2821C10.8423 16.3792 10.8632 16.4836 10.8633 16.5887V27.8543C10.8633 28.0669 10.7799 28.2714 10.6318 28.4217C10.4838 28.5719 10.2825 28.6561 10.0732 28.6561C9.86415 28.656 9.66355 28.5717 9.51563 28.4217C9.36757 28.2714 9.28418 28.0669 9.28418 27.8543V16.5887C9.28422 16.4836 9.30511 16.3792 9.34473 16.2821C9.38439 16.185 9.44243 16.0966 9.51563 16.0223C9.58891 15.948 9.67576 15.8887 9.77148 15.8485C9.86714 15.8083 9.96972 15.788 10.0732 15.7879ZM0.789063 18.867C0.892742 18.867 0.996006 18.8874 1.0918 18.9276C1.18739 18.9677 1.27445 19.0263 1.34766 19.1004C1.42089 19.1746 1.47889 19.2633 1.51855 19.3602C1.55822 19.4573 1.57912 19.5618 1.5791 19.6668V24.7772C1.5791 24.8822 1.55823 24.9868 1.51855 25.0838C1.4789 25.1806 1.42079 25.2685 1.34766 25.3426C1.27437 25.4169 1.18754 25.4763 1.0918 25.5164C0.996014 25.5566 0.892738 25.577 0.789063 25.577C0.685535 25.5769 0.582955 25.5566 0.487305 25.5164C0.391521 25.4762 0.304755 25.4169 0.231445 25.3426C0.158287 25.2685 0.100213 25.1807 0.0605469 25.0838C0.0208721 24.9868 5.4391e-09 24.8822 9.80868e-09 24.7772V19.6668C-1.65273e-05 19.5618 0.020878 19.4573 0.0605469 19.3602C0.100212 19.2633 0.158222 19.1746 0.231445 19.1004C0.30467 19.0263 0.39169 18.9677 0.487305 18.9276C0.582969 18.8874 0.685522 18.8671 0.789063 18.867Z" fill="url(#paint0_linear_2_18)"/>
<path d="M16.8076 12C16.7024 12 16.5982 12.0215 16.501 12.0625C16.4037 12.1036 16.3147 12.1633 16.2402 12.2393C16.1658 12.3152 16.1067 12.4057 16.0664 12.5049C16.0262 12.6039 16.0059 12.7102 16.0059 12.8174V31.626C16.0059 31.8428 16.09 32.0508 16.2402 32.2041C16.3906 32.3575 16.595 32.4434 16.8076 32.4434C17.0201 32.4433 17.2237 32.3574 17.374 32.2041C17.5244 32.0507 17.6094 31.8429 17.6094 31.626V12.8174C17.6093 12.7101 17.5881 12.604 17.5479 12.5049C17.5076 12.4057 17.4485 12.3152 17.374 12.2393C17.2997 12.1635 17.2114 12.1035 17.1143 12.0625C17.0171 12.0214 16.9128 12 16.8076 12ZM19.9502 15.6875C19.845 15.6875 19.7408 15.7092 19.6436 15.75C19.5463 15.7909 19.4572 15.8502 19.3828 15.9258C19.3084 16.0014 19.2493 16.0917 19.209 16.1904C19.1688 16.2891 19.1484 16.3951 19.1484 16.502V27.9424C19.1486 28.158 19.2326 28.3651 19.3828 28.5176C19.5332 28.6702 19.7376 28.7559 19.9502 28.7559C20.1627 28.7558 20.3663 28.67 20.5166 28.5176C20.6668 28.365 20.7518 28.1581 20.752 27.9424V16.502C20.752 16.3951 20.7307 16.2892 20.6904 16.1904C20.6501 16.0917 20.591 16.0014 20.5166 15.9258C20.4422 15.8504 20.3539 15.7908 20.2568 15.75C20.1596 15.7091 20.0554 15.6875 19.9502 15.6875ZM13.665 15.6875C13.5598 15.6875 13.4547 15.7091 13.3574 15.75C13.2604 15.7909 13.172 15.8504 13.0977 15.9258C13.0232 16.0014 12.9641 16.0917 12.9238 16.1904C12.8836 16.2892 12.8633 16.3951 12.8633 16.502V27.9424C12.8634 28.1581 12.9474 28.365 13.0977 28.5176C13.248 28.6702 13.4524 28.7559 13.665 28.7559C13.8775 28.7558 14.0812 28.6701 14.2314 28.5176C14.3817 28.365 14.4667 28.1581 14.4668 27.9424V16.502C14.4668 16.3951 14.4455 16.2892 14.4053 16.1904C14.365 16.0917 14.3059 16.0014 14.2314 15.9258C14.1571 15.8504 14.0687 15.7908 13.9717 15.75C13.8745 15.7092 13.7702 15.6875 13.665 15.6875ZM23.0928 18.8145C22.9876 18.8144 22.8833 18.8352 22.7861 18.876C22.6889 18.9168 22.6008 18.9774 22.5264 19.0527C22.4519 19.1282 22.3928 19.2178 22.3525 19.3164C22.3123 19.4149 22.291 19.5203 22.291 19.627V24.8164C22.291 24.9231 22.3122 25.0294 22.3525 25.1279C22.3928 25.2264 22.452 25.3163 22.5264 25.3916C22.6007 25.4668 22.689 25.5266 22.7861 25.5674C22.8834 25.6082 22.9875 25.6289 23.0928 25.6289C23.198 25.6289 23.3022 25.6082 23.3994 25.5674C23.4967 25.5266 23.5857 25.467 23.6602 25.3916C23.7346 25.3162 23.7937 25.2265 23.834 25.1279C23.8743 25.0294 23.8945 24.9231 23.8945 24.8164V19.627C23.8945 19.5204 23.8741 19.4148 23.834 19.3164C23.7938 19.218 23.7345 19.1281 23.6602 19.0527C23.5857 18.9773 23.4967 18.9168 23.3994 18.876C23.3022 18.8353 23.1979 18.8144 23.0928 18.8145Z" fill="#FF2020"/>
<path d="M16.8076 12C16.7024 12 16.5982 12.0215 16.501 12.0625C16.4037 12.1036 16.3147 12.1633 16.2402 12.2393C16.1658 12.3152 16.1067 12.4057 16.0664 12.5049C16.0262 12.6039 16.0059 12.7102 16.0059 12.8174V31.626C16.0059 31.8428 16.09 32.0508 16.2402 32.2041C16.3906 32.3575 16.595 32.4434 16.8076 32.4434C17.0201 32.4433 17.2237 32.3574 17.374 32.2041C17.5244 32.0507 17.6094 31.8429 17.6094 31.626V12.8174C17.6093 12.7101 17.5881 12.604 17.5479 12.5049C17.5076 12.4057 17.4485 12.3152 17.374 12.2393C17.2997 12.1635 17.2114 12.1035 17.1143 12.0625C17.0171 12.0214 16.9128 12 16.8076 12ZM19.9502 15.6875C19.845 15.6875 19.7408 15.7092 19.6436 15.75C19.5463 15.7909 19.4572 15.8502 19.3828 15.9258C19.3084 16.0014 19.2493 16.0917 19.209 16.1904C19.1688 16.2891 19.1484 16.3951 19.1484 16.502V27.9424C19.1486 28.158 19.2326 28.3651 19.3828 28.5176C19.5332 28.6702 19.7376 28.7559 19.9502 28.7559C20.1627 28.7558 20.3663 28.67 20.5166 28.5176C20.6668 28.365 20.7518 28.1581 20.752 27.9424V16.502C20.752 16.3951 20.7307 16.2892 20.6904 16.1904C20.6501 16.0917 20.591 16.0014 20.5166 15.9258C20.4422 15.8504 20.3539 15.7908 20.2568 15.75C20.1596 15.7091 20.0554 15.6875 19.9502 15.6875ZM13.665 15.6875C13.5598 15.6875 13.4547 15.7091 13.3574 15.75C13.2604 15.7909 13.172 15.8504 13.0977 15.9258C13.0232 16.0014 12.9641 16.0917 12.9238 16.1904C12.8836 16.2892 12.8633 16.3951 12.8633 16.502V27.9424C12.8634 28.1581 12.9474 28.365 13.0977 28.5176C13.248 28.6702 13.4524 28.7559 13.665 28.7559C13.8775 28.7558 14.0812 28.6701 14.2314 28.5176C14.3817 28.365 14.4667 28.1581 14.4668 27.9424V16.502C14.4668 16.3951 14.4455 16.2892 14.4053 16.1904C14.365 16.0917 14.3059 16.0014 14.2314 15.9258C14.1571 15.8504 14.0687 15.7908 13.9717 15.75C13.8745 15.7092 13.7702 15.6875 13.665 15.6875ZM23.0928 18.8145C22.9876 18.8144 22.8833 18.8352 22.7861 18.876C22.6889 18.9168 22.6008 18.9774 22.5264 19.0527C22.4519 19.1282 22.3928 19.2178 22.3525 19.3164C22.3123 19.4149 22.291 19.5203 22.291 19.627V24.8164C22.291 24.9231 22.3122 25.0294 22.3525 25.1279C22.3928 25.2264 22.452 25.3163 22.5264 25.3916C22.6007 25.4668 22.689 25.5266 22.7861 25.5674C22.8834 25.6082 22.9875 25.6289 23.0928 25.6289C23.198 25.6289 23.3022 25.6082 23.3994 25.5674C23.4967 25.5266 23.5857 25.467 23.6602 25.3916C23.7346 25.3162 23.7937 25.2265 23.834 25.1279C23.8743 25.0294 23.8945 24.9231 23.8945 24.8164V19.627C23.8945 19.5204 23.8741 19.4148 23.834 19.3164C23.7938 19.218 23.7345 19.1281 23.6602 19.0527C23.5857 18.9773 23.4967 18.9168 23.3994 18.876C23.3022 18.8353 23.1979 18.8144 23.0928 18.8145Z" fill="url(#paint1_linear_2_18)"/>
<path d="M4.00001 14.5728C4.00001 14.5728 3.99999 15.6862 4.00001 10.0825C4.00002 4.47875 8.5 2 12.0825 2C15.665 2 20.165 4.665 20.165 10.0825C20.165 15.5 20.165 14.5728 20.165 14.5728" stroke="black" stroke-width="2.02696" stroke-linecap="round" stroke-linejoin="round"/>
<path d="M23.8285 28.8285C24.5522 28.1046 25 27.1046 25 26C25 23.7909 23.2091 22 21 22C19.8954 22 18.8954 22.4478 18.1715 23.1715M23.8285 28.8285C23.1046 29.5522 22.1046 30 21 30C18.7909 30 17 28.2091 17 26C17 24.8954 17.4478 23.8954 18.1715 23.1715M23.8285 28.8285L18.1715 23.1715Z" fill="#FFFDFD"/>
<path d="M23.8285 28.8285C24.5522 28.1046 25 27.1046 25 26C25 23.7909 23.2091 22 21 22C19.8954 22 18.8954 22.4478 18.1715 23.1715M23.8285 28.8285C23.1046 29.5522 22.1046 30 21 30C18.7909 30 17 28.2091 17 26C17 24.8954 17.4478 23.8954 18.1715 23.1715M23.8285 28.8285L18.1715 23.1715" stroke="black" stroke-width="1.5"/>
<path d="M23.8285 28.8285C24.5522 28.1046 25 27.1046 25 26C25 23.7909 23.2091 22 21 22C19.8954 22 18.8954 22.4478 18.1715 23.1715M23.8285 28.8285C23.1046 29.5522 22.1046 30 21 30C18.7909 30 17 28.2091 17 26C17 24.8954 17.4478 23.8954 18.1715 23.1715M23.8285 28.8285L18.1715 23.1715" stroke="white" stroke-width="1.5"/>
<path d="M23.1213 28.1213C23.6642 27.5784 24 26.8284 24 26C24 24.3431 22.6569 23 21 23C20.1716 23 19.4216 23.3358 18.8787 23.8787M23.1213 28.1213C22.5784 28.6642 21.8284 29 21 29C19.3431 29 18 27.6569 18 26C18 25.1716 18.3358 24.4216 18.8787 23.8787M23.1213 28.1213L18.8787 23.8787Z" fill="#FFFDFD"/>
<path d="M23.1213 28.1213C23.6642 27.5784 24 26.8284 24 26C24 24.3431 22.6569 23 21 23C20.1716 23 19.4216 23.3358 18.8787 23.8787M23.1213 28.1213C22.5784 28.6642 21.8284 29 21 29C19.3431 29 18 27.6569 18 26C18 25.1716 18.3358 24.4216 18.8787 23.8787M23.1213 28.1213L18.8787 23.8787" stroke="black" stroke-width="1.5"/>
<defs>
<linearGradient id="paint0_linear_2_18" x1="5.41258" y1="31.8095" x2="5.95255" y2="21.8816" gradientUnits="userSpaceOnUse">
<stop stop-color="#FF5959"/>
<stop offset="1" stop-color="white" stop-opacity="0.06"/>
</linearGradient>
<linearGradient id="paint1_linear_2_18" x1="18.3983" y1="31.9575" x2="17.8499" y2="21.876" gradientUnits="userSpaceOnUse">
<stop stop-color="#FF5959"/>
<stop offset="1" stop-color="white" stop-opacity="0.06"/>
</linearGradient>
</defs>
</svg>
